<?xml version="1.0" encoding="utf-8"?>
<!-- Generator: Adobe Illustrator 16.0.0, SVG Export Plug-In . SVG Version: 6.00 Build 0)  -->
<!DOCTYPE svg PUBLIC "-//W3C//DTD SVG 1.1//EN" "http://www.w3.org/Graphics/SVG/1.1/DTD/svg11.dtd">
<svg version="1.1" id="Layer_1" xmlns="http://www.w3.org/2000/svg" xmlns:xlink="http://www.w3.org/1999/xlink" x="0px" y="0px"
	 width="792px" height="612px" viewBox="0 0 792 612" enable-background="new 0 0 792 612" xml:space="preserve">
<g>
	<polyline fill="#69BEA9" points="376.177,208.229 388.929,56.572 388.929,56.572 401.674,208.067 	"/>
	<polyline fill="#69BEA9" points="352.26,214.853 325.325,65.063 325.325,65.063 376.846,208.097 	"/>
	<polyline fill="#69BEA9" points="330.872,227.441 266.088,89.726 266.088,89.726 351.982,213.27 	"/>
	<polyline fill="#69BEA9" points="313.472,245.135 215.251,128.88 215.251,128.88 331.385,226.991 	"/>
	<polyline fill="#69BEA9" points="301.243,266.729 176.28,179.857 176.28,179.857 313.851,244.568 	"/>
	<polyline fill="#69BEA9" points="295.02,290.753 151.831,239.184 151.831,239.184 301.463,266.084 	"/>
	<polyline fill="#69BEA9" points="295.226,315.569 143.569,302.817 143.569,302.817 295.066,290.073 	"/>
	<polyline fill="#69BEA9" points="301.455,340.188 151.665,367.121 151.665,367.121 294.702,315.602 	"/>
	<polyline fill="#69BEA9" points="314.237,361.653 176.522,426.438 176.522,426.438 301.35,339.653 	"/>
	<polyline fill="#69BEA9" points="332.139,379.08 215.884,477.301 215.884,477.301 313.999,361.165 	"/>
	<polyline fill="#69BEA9" points="353.942,391.278 267.07,516.243 267.07,516.243 331.783,378.671 	"/>
	<polyline fill="#69BEA9" points="378.16,397.42 326.59,540.61 326.59,540.61 353.492,390.977 	"/>
	<polyline fill="#69BEA9" points="403.141,397.083 390.389,548.742 390.389,548.742 377.646,397.243 	"/>
	<polyline fill="#69BEA9" points="426.732,390.57 453.667,540.361 453.667,540.361 402.15,397.323 	"/>
	<polyline fill="#69BEA9" points="448.287,377.896 513.071,515.61 513.071,515.61 426.287,390.782 	"/>
	<polyline fill="#69BEA9" points="465.826,360.074 564.045,476.328 564.045,476.328 447.911,378.215 	"/>
	<polyline fill="#69BEA9" points="478.154,338.321 603.116,425.191 603.116,425.191 465.545,360.48 	"/>
	<polyline fill="#69BEA9" points="484.433,314.117 627.62,365.686 627.62,365.686 477.989,338.785 	"/>
	<polyline fill="#69BEA9" points="484.233,289.114 635.887,301.866 635.887,301.866 484.394,314.608 	"/>
	<polyline fill="#69BEA9" points="477.569,265.014 627.354,238.08 627.354,238.08 484.322,289.599 	"/>
	<polygon fill="#69BEA9" points="464.894,243.459 602.605,178.676 602.605,178.676 477.779,265.458 	"/>
	<polyline fill="#69BEA9" points="447.072,225.92 563.324,127.702 563.324,127.702 465.212,243.834 	"/>
	<polyline fill="#69BEA9" points="425.316,213.591 512.188,88.632 512.188,88.632 447.476,226.2 	"/>
	<polyline fill="#69BEA9" points="401.113,207.313 452.683,64.128 452.683,64.128 425.781,213.757 	"/>
	<path fill="#69BEA9" d="M389.373,203.18c-54.783,0-99.192,44.408-99.192,99.19s44.409,99.192,99.192,99.192
		c54.783,0,99.192-44.409,99.192-99.192S444.156,203.18,389.373,203.18z M389.357,392.812c-49.802,0-90.175-40.373-90.175-90.176
		c0-49.802,40.373-90.174,90.175-90.174c49.801,0,90.174,40.372,90.174,90.174C479.531,352.439,439.158,392.812,389.357,392.812z"/>
</g>
</svg>
